<svg width="40" height="40" viewBox="0 0 40 40" fill="none" xmlns="http://www.w3.org/2000/svg">
<path d="M20 32.7566L18.7367 31.615C16.0167 29.1305 13.7667 27.0033 11.9867 25.2333C10.2067 23.4644 8.80167 21.9044 7.77167 20.5533C6.74278 19.2011 6.02333 17.9783 5.61333 16.885C5.20444 15.7905 5 14.69 5 13.5833C5 11.4633 5.72 9.68331 7.16 8.24331C8.6 6.80331 10.38 6.08331 12.5 6.08331C13.9667 6.08331 15.3417 6.45831 16.625 7.20831C17.9083 7.95831 19.0333 9.04887 20 10.48C20.9667 9.04887 22.0917 7.95831 23.375 7.20831C24.6583 6.45831 26.0333 6.08331 27.5 6.08331C29.62 6.08331 31.4 6.80331 32.84 8.24331C34.28 9.68331 35 11.4633 35 13.5833C35 14.69 34.7956 15.79 34.3867 16.8833C33.9767 17.9778 33.2572 19.2011 32.2283 20.5533C31.1983 21.9044 29.7983 23.4644 28.0283 25.2333C26.2594 27.0033 24.0039 29.1311 21.2617 31.6166L20 32.7566ZM20 30.5C22.6667 28.0889 24.8611 26.0244 26.5833 24.3066C28.3056 22.5878 29.6667 21.0961 30.6667 19.8316C31.6667 18.5672 32.3611 17.4478 32.75 16.4733C33.1389 15.4978 33.3333 14.5344 33.3333 13.5833C33.3333 11.9166 32.7778 10.5278 31.6667 9.41665C30.5556 8.30554 29.1667 7.74998 27.5 7.74998C26.1733 7.74998 24.9489 8.12887 23.8267 8.88665C22.7044 9.64331 21.7 10.7839 20.8133 12.3083H19.1867C18.2778 10.7639 17.2678 9.61776 16.1567 8.86998C15.0456 8.12331 13.8267 7.74998 12.5 7.74998C10.8556 7.74998 9.47222 8.30554 8.35 9.41665C7.22778 10.5278 6.66667 11.9166 6.66667 13.5833C6.66667 14.5344 6.86111 15.4978 7.25 16.4733C7.63889 17.4489 8.33333 18.5683 9.33333 19.8316C10.3333 21.095 11.6944 22.5811 13.4167 24.29C15.1389 25.9989 17.3333 28.0689 20 30.5Z" fill="black"/>
</svg>
