<svg width="25" height="25" viewBox="0 0 25 25" fill="none" xmlns="http://www.w3.org/2000/svg">
<path d="M12.5001 22.9166C13.6459 22.9166 14.5834 21.9791 14.5834 20.8333H10.4167C10.4167 21.9791 11.3542 22.9166 12.5001 22.9166ZM18.7501 16.6666V11.4583C18.7501 8.26038 17.0522 5.58329 14.0626 4.87496V4.16663C14.0626 3.30204 13.3647 2.60413 12.5001 2.60413C11.6355 2.60413 10.9376 3.30204 10.9376 4.16663V4.87496C7.95841 5.58329 6.25008 8.24996 6.25008 11.4583V16.6666L4.16675 18.75V19.7916H20.8334V18.75L18.7501 16.6666ZM16.6667 17.7083H8.33341V11.4583C8.33341 8.87496 9.90633 6.77079 12.5001 6.77079C15.0938 6.77079 16.6667 8.87496 16.6667 11.4583V17.7083Z" fill="white"/>
</svg>
