<svg width="40" height="40" viewBox="0 0 40 40" fill="none" xmlns="http://www.w3.org/2000/svg">
<g clip-path="url(#clip0_87_287)">
<path fill-rule="evenodd" clip-rule="evenodd" d="M15 21.6667C15.8841 21.6667 16.7319 22.0179 17.357 22.643C17.9821 23.2681 18.3333 24.1159 18.3333 25V31.6667C18.3333 32.5507 17.9821 33.3986 17.357 34.0237C16.7319 34.6488 15.8841 35 15 35H8.33333C7.44928 35 6.60143 34.6488 5.97631 34.0237C5.35119 33.3986 5 32.5507 5 31.6667V25C5 24.1159 5.35119 23.2681 5.97631 22.643C6.60143 22.0179 7.44928 21.6667 8.33333 21.6667H15ZM31.6667 21.6667C32.5507 21.6667 33.3986 22.0179 34.0237 22.643C34.6488 23.2681 35 24.1159 35 25V31.6667C35 32.5507 34.6488 33.3986 34.0237 34.0237C33.3986 34.6488 32.5507 35 31.6667 35H25C24.1159 35 23.2681 34.6488 22.643 34.0237C22.0179 33.3986 21.6667 32.5507 21.6667 31.6667V25C21.6667 24.1159 22.0179 23.2681 22.643 22.643C23.2681 22.0179 24.1159 21.6667 25 21.6667H31.6667ZM15 5C15.8841 5 16.7319 5.35119 17.357 5.97631C17.9821 6.60143 18.3333 7.44928 18.3333 8.33333V15C18.3333 15.8841 17.9821 16.7319 17.357 17.357C16.7319 17.9821 15.8841 18.3333 15 18.3333H8.33333C7.44928 18.3333 6.60143 17.9821 5.97631 17.357C5.35119 16.7319 5 15.8841 5 15V8.33333C5 7.44928 5.35119 6.60143 5.97631 5.97631C6.60143 5.35119 7.44928 5 8.33333 5H15ZM31.6667 5C32.5507 5 33.3986 5.35119 34.0237 5.97631C34.6488 6.60143 35 7.44928 35 8.33333V15C35 15.8841 34.6488 16.7319 34.0237 17.357C33.3986 17.9821 32.5507 18.3333 31.6667 18.3333H25C24.1159 18.3333 23.2681 17.9821 22.643 17.357C22.0179 16.7319 21.6667 15.8841 21.6667 15V8.33333C21.6667 7.44928 22.0179 6.60143 22.643 5.97631C23.2681 5.35119 24.1159 5 25 5H31.6667Z" fill="black"/>
</g>
<defs>
<clipPath id="clip0_87_287">
<rect width="40" height="40" fill="white"/>
</clipPath>
</defs>
</svg>
