<svg width="36" height="32" viewBox="0 0 36 32" fill="none" xmlns="http://www.w3.org/2000/svg">
<g clip-path="url(#clip0_87_242)">
<path d="M0.500066 31.983C0.628133 32.0164 0.764192 31.9979 0.878752 31.9317C0.993311 31.8654 1.07714 31.7566 1.11207 31.629C2.14207 27.786 6.32807 26.79 8.83007 26.194C9.45707 26.045 9.95207 25.927 10.2741 25.788C13.1241 24.551 14.0531 22.561 14.3311 21.109C14.3476 21.0226 14.341 20.9334 14.3121 20.8503C14.2831 20.7673 14.2327 20.6934 14.1661 20.636C12.6821 19.355 11.4301 17.432 10.6401 15.22C10.6178 15.1566 10.5827 15.0984 10.5371 15.049C9.49207 13.913 8.89207 12.712 8.89207 11.755C8.89207 11.196 9.10307 10.821 9.57807 10.538C9.64922 10.4955 9.70868 10.4359 9.75109 10.3647C9.79351 10.2935 9.81756 10.2128 9.82107 10.13C10.0421 5.03599 13.6701 1.02599 18.1201 0.999991L18.2271 1.00699C22.6991 1.06899 26.3041 5.16499 26.4331 10.331C26.4349 10.4016 26.4517 10.471 26.4824 10.5346C26.5131 10.5983 26.5569 10.6546 26.6111 10.7C26.9241 10.965 27.0701 11.301 27.0701 11.757C27.0701 12.558 26.6431 13.543 25.8691 14.529C25.8322 14.5764 25.8038 14.6299 25.7851 14.687C24.9851 17.223 23.5491 19.462 21.8471 20.832C21.7766 20.8889 21.7228 20.9639 21.6914 21.0489C21.6601 21.134 21.6524 21.2259 21.6691 21.315C21.9471 22.766 22.8761 24.755 25.7261 25.994C26.0631 26.14 26.5861 26.254 27.2491 26.397C29.7261 26.933 33.8711 27.832 34.8881 31.629C34.9051 31.6924 34.9345 31.7519 34.9746 31.8039C35.0146 31.856 35.0645 31.8997 35.1215 31.9324C35.1784 31.9652 35.2412 31.9865 35.3063 31.995C35.3715 32.0035 35.4376 31.9991 35.5011 31.982C35.5645 31.9649 35.6239 31.9355 35.676 31.8955C35.7281 31.8554 35.7717 31.8055 35.8045 31.7486C35.8373 31.6917 35.8585 31.6289 35.867 31.5637C35.8755 31.4986 35.8711 31.4324 35.8541 31.369C34.6791 26.982 29.9831 25.965 27.4611 25.419C26.8761 25.292 26.3711 25.183 26.1251 25.075C24.2651 24.267 23.1191 23.036 22.7141 21.41C24.4411 19.927 25.8861 17.639 26.7121 15.073C27.5891 13.933 28.0711 12.759 28.0711 11.756C28.0711 11.087 27.8551 10.529 27.4271 10.093C27.1891 4.48899 23.1901 0.0759907 18.2271 0.00499072L18.0781 0.00299072C13.2051 0.0289907 9.18907 4.32599 8.83807 9.83299C8.21207 10.293 7.89407 10.938 7.89407 11.757C7.89407 12.94 8.56307 14.355 9.73407 15.653C10.5431 17.876 11.7971 19.829 13.2901 21.196C12.8871 22.828 11.7401 24.063 9.87607 24.872C9.63507 24.977 9.15507 25.092 8.59907 25.224C6.05807 25.828 1.33007 26.953 0.146066 31.371C0.111872 31.4991 0.129957 31.6355 0.196342 31.7503C0.262727 31.8651 0.371977 31.9488 0.500066 31.983Z" fill="black"/>
</g>
<defs>
<clipPath id="clip0_87_242">
<rect width="36" height="32" fill="white"/>
</clipPath>
</defs>
</svg>
