<svg width="23" height="21" viewBox="0 0 23 21" fill="none" xmlns="http://www.w3.org/2000/svg">
<path d="M11.5 20.4496L10.5314 19.5743C8.44611 17.6695 6.72111 16.0387 5.35644 14.6817C3.99178 13.3255 2.91461 12.1295 2.12494 11.0937C1.33613 10.057 0.784556 9.1195 0.470222 8.28128C0.156741 7.4422 0 6.59844 0 5.75C0 4.12467 0.552 2.76 1.656 1.656C2.76 0.552 4.12467 0 5.75 0C6.87444 0 7.92861 0.2875 8.9125 0.8625C9.89639 1.4375 10.7589 2.27359 11.5 3.37078C12.2411 2.27359 13.1036 1.4375 14.0875 0.8625C15.0714 0.2875 16.1256 0 17.25 0C18.8753 0 20.24 0.552 21.344 1.656C22.448 2.76 23 4.12467 23 5.75C23 6.59844 22.8433 7.44178 22.5298 8.28C22.2154 9.11907 21.6639 10.057 20.8751 11.0937C20.0854 12.1295 19.0121 13.3255 17.6551 14.6817C16.2989 16.0387 14.5696 17.67 12.4673 19.5756L11.5 20.4496Z" fill="#FF8A00"/>
</svg>
