<svg width="36" height="32" viewBox="0 0 36 32" fill="none" xmlns="http://www.w3.org/2000/svg">
<path d="M0.370959 31.9838C0.499041 32.0171 0.635117 31.9987 0.749689 31.9324C0.864262 31.8661 0.9481 31.7574 0.983031 31.6297C2.01315 27.7863 6.19964 26.7901 8.70194 26.1941C9.32901 26.0451 9.82407 25.927 10.1461 25.788C12.9964 24.5509 13.9255 22.5606 14.2036 21.1085C14.2201 21.0221 14.2136 20.9328 14.1846 20.8498C14.1556 20.7667 14.1052 20.6928 14.0386 20.6354C12.5544 19.3543 11.3022 17.431 10.5121 15.2188C10.4899 15.1553 10.4548 15.0971 10.4091 15.0478C9.36401 13.9116 8.76394 12.7105 8.76394 11.7534C8.76394 11.1943 8.97497 10.8193 9.45002 10.5362C9.52118 10.4937 9.58065 10.4341 9.62307 10.3629C9.66549 10.2917 9.68954 10.211 9.69305 10.1282C9.91408 5.03359 13.5425 1.02312 17.993 0.997117L18.1 1.00412C22.5726 1.06613 26.178 5.16261 26.307 10.3292C26.3088 10.3998 26.3256 10.4693 26.3563 10.5329C26.387 10.5965 26.4309 10.6529 26.485 10.6983C26.7981 10.9633 26.9441 11.2993 26.9441 11.7554C26.9441 12.5565 26.517 13.5416 25.7429 14.5277C25.706 14.5751 25.6776 14.6286 25.6589 14.6857C24.8588 17.222 23.4227 19.4613 21.7205 20.8314C21.65 20.8884 21.5962 20.9634 21.5648 21.0484C21.5335 21.1335 21.5257 21.2254 21.5424 21.3145C21.8205 22.7657 22.7496 24.7549 25.5999 25.994C25.937 26.1401 26.46 26.2541 27.1231 26.3971C29.6004 26.9332 33.7459 27.8323 34.763 31.6297C34.7801 31.6931 34.8095 31.7526 34.8495 31.8047C34.8896 31.8567 34.9395 31.9004 34.9964 31.9332C35.0533 31.966 35.1162 31.9872 35.1813 31.9957C35.2464 32.0042 35.3126 31.9998 35.3761 31.9828C35.4395 31.9657 35.499 31.9363 35.551 31.8962C35.6031 31.8562 35.6468 31.8063 35.6796 31.7493C35.7123 31.6924 35.7336 31.6296 35.7421 31.5644C35.7506 31.4993 35.7462 31.4331 35.7291 31.3697C34.554 26.9822 29.8574 25.965 27.3351 25.419C26.7501 25.292 26.245 25.183 25.999 25.0749C24.1387 24.2668 22.9926 23.0357 22.5876 21.4095C24.3148 19.9263 25.7599 17.6381 26.586 15.0718C27.4631 13.9316 27.9452 12.7575 27.9452 11.7544C27.9452 11.0853 27.7292 10.5272 27.3011 10.0912C27.0631 4.48653 23.0636 0.0730086 18.1 0.00200023L17.951 0C13.0774 0.0260031 9.06098 4.32351 8.70994 9.83115C8.08386 10.2912 7.76583 10.9363 7.76583 11.7554C7.76583 12.9385 8.43491 14.3537 9.60604 15.6518C10.4151 17.8751 11.6693 19.8283 13.1625 21.1955C12.7594 22.8277 11.6123 24.0628 9.74806 24.8719C9.50703 24.9769 9.02697 25.0919 8.47091 25.224C5.92961 25.828 1.20106 26.9532 0.0169176 31.3717C-0.01728 31.4998 0.000806396 31.6362 0.0671992 31.751C0.133592 31.8658 0.242855 31.9495 0.370959 31.9838Z" fill="#FFFCFC"/>
</svg>
