<svg width="30" height="30" viewBox="0 0 30 30" fill="none" xmlns="http://www.w3.org/2000/svg">
<path d="M15 24.5675L14.0525 23.7113C12.0125 21.8479 10.325 20.2525 8.99 18.925C7.655 17.5983 6.60125 16.4283 5.82875 15.415C5.05708 14.4008 4.5175 13.4837 4.21 12.6637C3.90333 11.8429 3.75 11.0175 3.75 10.1875C3.75 8.5975 4.29 7.2625 5.37 6.1825C6.45 5.1025 7.785 4.5625 9.375 4.5625C10.475 4.5625 11.5063 4.84375 12.4688 5.40625C13.4313 5.96875 14.275 6.78667 15 7.86C15.725 6.78667 16.5687 5.96875 17.5312 5.40625C18.4937 4.84375 19.525 4.5625 20.625 4.5625C22.215 4.5625 23.55 5.1025 24.63 6.1825C25.71 7.2625 26.25 8.5975 26.25 10.1875C26.25 11.0175 26.0967 11.8425 25.79 12.6625C25.4825 13.4833 24.9429 14.4008 24.1712 15.415C23.3988 16.4283 22.3487 17.5983 21.0212 18.925C19.6946 20.2525 18.0029 21.8483 15.9462 23.7125L15 24.5675Z" fill="#FF8A00"/>
</svg>
