<svg width="40" height="40" viewBox="0 0 40 40" fill="none" xmlns="http://www.w3.org/2000/svg">
<path d="M20 32.7567L18.7367 31.615C16.0167 29.1306 13.7667 27.0034 11.9867 25.2334C10.2067 23.4645 8.80167 21.9045 7.77167 20.5534C6.74278 19.2011 6.02333 17.9784 5.61333 16.885C5.20444 15.7906 5 14.69 5 13.5834C5 11.4634 5.72 9.68337 7.16 8.24337C8.6 6.80337 10.38 6.08337 12.5 6.08337C13.9667 6.08337 15.3417 6.45837 16.625 7.20837C17.9083 7.95837 19.0333 9.04893 20 10.48C20.9667 9.04893 22.0917 7.95837 23.375 7.20837C24.6583 6.45837 26.0333 6.08337 27.5 6.08337C29.62 6.08337 31.4 6.80337 32.84 8.24337C34.28 9.68337 35 11.4634 35 13.5834C35 14.69 34.7956 15.79 34.3867 16.8834C33.9767 17.9778 33.2572 19.2011 32.2283 20.5534C31.1983 21.9045 29.7983 23.4645 28.0283 25.2334C26.2594 27.0034 24.0039 29.1312 21.2617 31.6167L20 32.7567Z" fill="black"/>
</svg>
