<svg width="25" height="25" viewBox="0 0 25 25" fill="none" xmlns="http://www.w3.org/2000/svg">
<path d="M21.8749 12.5C21.8749 12.0856 21.7103 11.6882 21.4173 11.3952C21.1243 11.1021 20.7268 10.9375 20.3124 10.9375L7.93743 10.9375L12.0416 6.83334C12.3176 6.53714 12.4678 6.14538 12.4607 5.74059C12.4536 5.33579 12.2896 4.94957 12.0033 4.6633C11.717 4.37702 11.3308 4.21303 10.926 4.20589C10.5212 4.19875 10.1295 4.34901 9.83326 4.62501L3.06243 11.3958C2.76982 11.6888 2.60547 12.0859 2.60547 12.5C2.60547 12.9141 2.76982 13.3112 3.06243 13.6042L9.83326 20.375C9.97631 20.5285 10.1488 20.6516 10.3405 20.737C10.5321 20.8224 10.739 20.8684 10.9488 20.8721C11.1586 20.8758 11.367 20.8372 11.5616 20.7586C11.7561 20.68 11.9329 20.563 12.0813 20.4147C12.2296 20.2663 12.3466 20.0896 12.4252 19.895C12.5038 19.7004 12.5424 19.492 12.5387 19.2823C12.535 19.0725 12.489 18.8656 12.4036 18.6739C12.3182 18.4822 12.1951 18.3097 12.0416 18.1667L7.93743 14.0625L20.3124 14.0625C21.1749 14.0625 21.8749 13.3625 21.8749 12.5Z" fill="black"/>
</svg>
