<svg width="24" height="24" viewBox="0 0 24 24" fill="none" xmlns="http://www.w3.org/2000/svg">
<path d="M2 3V1.75C1.31 1.75 0.75 2.31 0.75 3H2ZM13 3H14.25C14.25 2.31 13.69 1.75 13 1.75V3ZM13 9V7.75C12.6685 7.75 12.3505 7.8817 12.1161 8.11612C11.8817 8.35054 11.75 8.66848 11.75 9H13ZM2 4.25H13V1.75H2V4.25ZM11.75 3V19H14.25V3H11.75ZM3.25 17V3H0.75V17H3.25ZM13 10.25H18V7.75H13V10.25ZM20.75 13V17H23.25V13H20.75ZM14.25 19V9H11.75V19H14.25ZM18.53 19.53C18.3894 19.6705 18.1988 19.7493 18 19.7493C17.8012 19.7493 17.6106 19.6705 17.47 19.53L15.702 21.298C16.3115 21.9074 17.1381 22.2498 18 22.2498C18.8619 22.2498 19.6885 21.9074 20.298 21.298L18.53 19.53ZM17.47 18.47C17.6106 18.3295 17.8012 18.2507 18 18.2507C18.1988 18.2507 18.3894 18.3295 18.53 18.47L20.298 16.702C19.6885 16.0926 18.8619 15.7502 18 15.7502C17.1381 15.7502 16.3115 16.0926 15.702 16.702L17.47 18.47ZM6.53 19.53C6.38937 19.6705 6.19875 19.7493 6 19.7493C5.80125 19.7493 5.61063 19.6705 5.47 19.53L3.702 21.298C4.31149 21.9074 5.13809 22.2498 6 22.2498C6.86191 22.2498 7.68852 21.9074 8.298 21.298L6.53 19.53ZM5.47 18.47C5.61063 18.3295 5.80125 18.2507 6 18.2507C6.19875 18.2507 6.38937 18.3295 6.53 18.47L8.298 16.702C7.68852 16.0926 6.86191 15.7502 6 15.7502C5.13809 15.7502 4.31149 16.0926 3.702 16.702L5.47 18.47ZM18.53 18.47C18.6001 18.5392 18.6557 18.6218 18.6935 18.7128C18.7312 18.8038 18.7505 18.9015 18.75 19H21.25C21.2505 18.5731 21.1667 18.1504 21.0033 17.756C20.8399 17.3616 20.6002 17.0034 20.298 16.702L18.53 18.47ZM18.75 19C18.7502 19.0985 18.7309 19.1961 18.6932 19.2871C18.6554 19.378 18.5999 19.4606 18.53 19.53L20.298 21.298C20.6001 20.9964 20.8396 20.6382 21.003 20.2439C21.1664 19.8495 21.2503 19.4268 21.25 19H18.75ZM16 17.75H13V20.25H16V17.75ZM17.47 19.53C17.4001 19.4606 17.3446 19.378 17.3068 19.2871C17.2691 19.1961 17.2498 19.0985 17.25 19H14.75C14.75 19.83 15.068 20.664 15.702 21.298L17.47 19.53ZM17.25 19C17.2495 18.9015 17.2688 18.8038 17.3065 18.7128C17.3443 18.6218 17.3999 18.5392 17.47 18.47L15.702 16.702C15.3999 17.0036 15.1604 17.3618 14.997 17.7561C14.8336 18.1505 14.7497 18.5732 14.75 19H17.25ZM5.47 19.53C5.40007 19.4606 5.34461 19.378 5.30685 19.2871C5.26908 19.1961 5.24976 19.0985 5.25 19H2.75C2.75 19.83 3.068 20.664 3.702 21.298L5.47 19.53ZM5.25 19C5.24953 18.9015 5.26875 18.8038 5.30653 18.7128C5.34431 18.6218 5.39989 18.5392 5.47 18.47L3.702 16.702C3.39994 17.0036 3.16036 17.3618 2.997 17.7561C2.83363 18.1505 2.7497 18.5732 2.75 19H5.25ZM13 17.75H8V20.25H13V17.75ZM6.53 18.47C6.60011 18.5392 6.65569 18.6218 6.69347 18.7128C6.73125 18.8038 6.75047 18.9015 6.75 19H9.25C9.25 18.17 8.932 17.336 8.298 16.702L6.53 18.47ZM6.75 19C6.75024 19.0985 6.73092 19.1961 6.69315 19.2871C6.65539 19.378 6.59993 19.4606 6.53 19.53L8.298 21.298C8.60006 20.9964 8.83964 20.6382 9.003 20.2439C9.16637 19.8495 9.2503 19.4268 9.25 19H6.75ZM20.75 17C20.75 17.1989 20.671 17.3897 20.5303 17.5303C20.3897 17.671 20.1989 17.75 20 17.75V20.25C20.862 20.25 21.6886 19.9076 22.2981 19.2981C22.9076 18.6886 23.25 17.862 23.25 17H20.75ZM18 10.25C18.7293 10.25 19.4288 10.5397 19.9445 11.0555C20.4603 11.5712 20.75 12.2707 20.75 13H23.25C23.25 10.1 20.9 7.75 18 7.75V10.25ZM0.75 17C0.75 17.862 1.09241 18.6886 1.7019 19.2981C2.3114 19.9076 3.13805 20.25 4 20.25V17.75C3.80109 17.75 3.61032 17.671 3.46967 17.5303C3.32902 17.3897 3.25 17.1989 3.25 17H0.75Z" fill="black"/>
</svg>
