<svg width="35" height="35" viewBox="0 0 35 35" fill="none" xmlns="http://www.w3.org/2000/svg">
<path d="M0 3.75C0 2.75544 0.395088 1.80161 1.09835 1.09835C1.80161 0.395088 2.75544 0 3.75 0H11.25C12.2446 0 13.1984 0.395088 13.9017 1.09835C14.6049 1.80161 15 2.75544 15 3.75V11.25C15 12.2446 14.6049 13.1984 13.9017 13.9017C13.1984 14.6049 12.2446 15 11.25 15H3.75C2.75544 15 1.80161 14.6049 1.09835 13.9017C0.395088 13.1984 0 12.2446 0 11.25V3.75ZM3.75 2.5C3.41848 2.5 3.10054 2.6317 2.86612 2.86612C2.6317 3.10054 2.5 3.41848 2.5 3.75V11.25C2.5 11.5815 2.6317 11.8995 2.86612 12.1339C3.10054 12.3683 3.41848 12.5 3.75 12.5H11.25C11.5815 12.5 11.8995 12.3683 12.1339 12.1339C12.3683 11.8995 12.5 11.5815 12.5 11.25V3.75C12.5 3.41848 12.3683 3.10054 12.1339 2.86612C11.8995 2.6317 11.5815 2.5 11.25 2.5H3.75ZM20 3.75C20 2.75544 20.3951 1.80161 21.0983 1.09835C21.8016 0.395088 22.7554 0 23.75 0H31.25C32.2446 0 33.1984 0.395088 33.9016 1.09835C34.6049 1.80161 35 2.75544 35 3.75V11.25C35 12.2446 34.6049 13.1984 33.9016 13.9017C33.1984 14.6049 32.2446 15 31.25 15H23.75C22.7554 15 21.8016 14.6049 21.0983 13.9017C20.3951 13.1984 20 12.2446 20 11.25V3.75ZM23.75 2.5C23.4185 2.5 23.1005 2.6317 22.8661 2.86612C22.6317 3.10054 22.5 3.41848 22.5 3.75V11.25C22.5 11.5815 22.6317 11.8995 22.8661 12.1339C23.1005 12.3683 23.4185 12.5 23.75 12.5H31.25C31.5815 12.5 31.8995 12.3683 32.1339 12.1339C32.3683 11.8995 32.5 11.5815 32.5 11.25V3.75C32.5 3.41848 32.3683 3.10054 32.1339 2.86612C31.8995 2.6317 31.5815 2.5 31.25 2.5H23.75ZM0 23.75C0 22.7554 0.395088 21.8016 1.09835 21.0983C1.80161 20.3951 2.75544 20 3.75 20H11.25C12.2446 20 13.1984 20.3951 13.9017 21.0983C14.6049 21.8016 15 22.7554 15 23.75V31.25C15 32.2446 14.6049 33.1984 13.9017 33.9016C13.1984 34.6049 12.2446 35 11.25 35H3.75C2.75544 35 1.80161 34.6049 1.09835 33.9016C0.395088 33.1984 0 32.2446 0 31.25V23.75ZM3.75 22.5C3.41848 22.5 3.10054 22.6317 2.86612 22.8661C2.6317 23.1005 2.5 23.4185 2.5 23.75V31.25C2.5 31.5815 2.6317 31.8995 2.86612 32.1339C3.10054 32.3683 3.41848 32.5 3.75 32.5H11.25C11.5815 32.5 11.8995 32.3683 12.1339 32.1339C12.3683 31.8995 12.5 31.5815 12.5 31.25V23.75C12.5 23.4185 12.3683 23.1005 12.1339 22.8661C11.8995 22.6317 11.5815 22.5 11.25 22.5H3.75ZM20 23.75C20 22.7554 20.3951 21.8016 21.0983 21.0983C21.8016 20.3951 22.7554 20 23.75 20H31.25C32.2446 20 33.1984 20.3951 33.9016 21.0983C34.6049 21.8016 35 22.7554 35 23.75V31.25C35 32.2446 34.6049 33.1984 33.9016 33.9016C33.1984 34.6049 32.2446 35 31.25 35H23.75C22.7554 35 21.8016 34.6049 21.0983 33.9016C20.3951 33.1984 20 32.2446 20 31.25V23.75ZM23.75 22.5C23.4185 22.5 23.1005 22.6317 22.8661 22.8661C22.6317 23.1005 22.5 23.4185 22.5 23.75V31.25C22.5 31.5815 22.6317 31.8995 22.8661 32.1339C23.1005 32.3683 23.4185 32.5 23.75 32.5H31.25C31.5815 32.5 31.8995 32.3683 32.1339 32.1339C32.3683 31.8995 32.5 31.5815 32.5 31.25V23.75C32.5 23.4185 32.3683 23.1005 32.1339 22.8661C31.8995 22.6317 31.5815 22.5 31.25 22.5H23.75Z" fill="black"/>
</svg>
